<svg width="51" height="30" viewBox="0 0 51 30" fill="none" xmlns="http://www.w3.org/2000/svg">
<path d="M14.2188 8.41497C14.1133 9.45613 13.7793 10.2607 13.2168 10.8286C12.6582 11.392 11.9141 11.6737 10.9844 11.6737C9.97656 11.6737 9.16797 11.2568 8.55859 10.4229C7.95312 9.5891 7.65039 8.47356 7.65039 7.07632V6.12981C7.65039 5.21484 7.79102 4.41031 8.07227 3.71619C8.35742 3.02208 8.75977 2.49023 9.2793 2.12064C9.79883 1.74654 10.4004 1.55949 11.084 1.55949C11.9902 1.55949 12.7168 1.85247 13.2637 2.4384C13.8105 3.01983 14.1289 3.82663 14.2188 4.85878H13.0879C12.9902 4.07452 12.7773 3.50661 12.4492 3.15505C12.125 2.80349 11.6699 2.6277 11.084 2.6277C10.3652 2.6277 9.80078 2.9342 9.39062 3.54718C8.98438 4.16016 8.78125 5.0323 8.78125 6.16362V7.11689C8.78125 8.1851 8.97461 9.03471 9.36133 9.66571C9.74805 10.2967 10.2891 10.6122 10.9844 10.6122C11.6094 10.6122 12.0879 10.45 12.4199 10.1254C12.7559 9.79642 12.9785 9.22626 13.0879 8.41497H14.2188ZM16.7676 11.5385H15.6836V1.15385H16.7676V11.5385ZM19.6855 11.5385H18.6016V4.22326H19.6855V11.5385ZM18.5137 2.28291C18.5137 2.08007 18.5664 1.90881 18.6719 1.76908C18.7812 1.62936 18.9414 1.55949 19.1523 1.55949C19.3633 1.55949 19.5234 1.62936 19.6328 1.76908C19.7422 1.90881 19.7969 2.08007 19.7969 2.28291C19.7969 2.48573 19.7422 2.65475 19.6328 2.78996C19.5234 2.92518 19.3633 2.99279 19.1523 2.99279C18.9414 2.99279 18.7812 2.92518 18.6719 2.78996C18.5664 2.65475 18.5137 2.48573 18.5137 2.28291ZM21.1621 7.82001C21.1621 6.67067 21.3906 5.76247 21.8477 5.09541C22.3047 4.42382 22.918 4.08804 23.6875 4.08804C24.4375 4.08804 25.0293 4.37875 25.4629 4.96019L25.5098 4.22326H26.5059V14.351H25.4219V10.8624C24.9844 11.4032 24.4023 11.6737 23.6758 11.6737C22.9102 11.6737 22.2988 11.3311 21.8418 10.646C21.3887 9.95643 21.1621 9.04372 21.1621 7.90791V7.82001ZM22.2461 7.96199C22.2461 8.80033 22.3984 9.45839 22.7031 9.93615C23.0117 10.4139 23.4258 10.6528 23.9453 10.6528C24.5898 10.6528 25.082 10.3238 25.4219 9.66571V6.08248C25.0781 5.43795 24.5898 5.11568 23.957 5.11568C23.4336 5.11568 23.0176 5.35682 22.709 5.8391C22.4004 6.31686 22.2461 7.02449 22.2461 7.96199ZM32.1602 10.8151C31.7383 11.3875 31.1191 11.6737 30.3027 11.6737C29.627 11.6737 29.1113 11.4483 28.7559 10.9976C28.4043 10.5424 28.2266 9.8708 28.2227 8.98288V4.22326H29.3066V8.94907C29.3066 10.0578 29.6973 10.6122 30.4785 10.6122C31.3066 10.6122 31.8574 10.2562 32.1309 9.54401V4.22326H33.2148V11.5385H32.1836L32.1602 10.8151ZM37.498 11.6737C36.6387 11.6737 35.9395 11.3492 35.4004 10.7001C34.8613 10.0466 34.5918 9.17443 34.5918 8.08368V7.85382C34.5918 7.12815 34.7109 6.48137 34.9492 5.91346C35.1914 5.34105 35.5273 4.89483 35.957 4.57481C36.3906 4.2503 36.8594 4.08804 37.3633 4.08804C38.1875 4.08804 38.8281 4.40129 39.2852 5.02779C39.7422 5.6543 39.9707 6.55123 39.9707 7.7186V8.23918H35.6758C35.6914 8.96033 35.873 9.54402 36.2207 9.99023C36.5723 10.4319 37.0176 10.6528 37.5566 10.6528C37.9395 10.6528 38.2637 10.5627 38.5293 10.3824C38.7949 10.2021 39.0273 9.9632 39.2266 9.66571L39.8887 10.2607C39.3574 11.2027 38.5605 11.6737 37.498 11.6737ZM37.3633 5.11568C36.9258 5.11568 36.5586 5.30048 36.2617 5.67007C35.9648 6.03516 35.7812 6.54898 35.7109 7.21154H38.8867V7.11689C38.8555 6.48137 38.707 5.99009 38.4414 5.64302C38.1758 5.29147 37.8164 5.11568 37.3633 5.11568ZM8.26562 24.5688C8.16016 25.61 7.82617 26.4145 7.26367 26.9825C6.70508 27.5458 5.96094 27.8275 5.03125 27.8275C4.02344 27.8275 3.21484 27.4107 2.60547 26.5768C2 25.7429 1.69727 24.6275 1.69727 23.2302V22.2837C1.69727 21.3687 1.83789 20.5642 2.11914 19.87C2.4043 19.1759 2.80664 18.6441 3.32617 18.2745C3.8457 17.9004 4.44727 17.7134 5.13086 17.7134C6.03711 17.7134 6.76367 18.0063 7.31055 18.5923C7.85742 19.1737 8.17578 19.9805 8.26562 21.0126H7.13477C7.03711 20.2283 6.82422 19.6605 6.49609 19.3089C6.17188 18.9573 5.7168 18.7815 5.13086 18.7815C4.41211 18.7815 3.84766 19.0881 3.4375 19.701C3.03125 20.314 2.82812 21.1861 2.82812 22.3175V23.2708C2.82812 24.339 3.02148 25.1886 3.4082 25.8196C3.79492 26.4505 4.33594 26.7661 5.03125 26.7661C5.65625 26.7661 6.13477 26.6038 6.4668 26.2793C6.80273 25.9502 7.02539 25.3801 7.13477 24.5688H8.26562ZM9.34961 23.9671C9.34961 23.2505 9.4707 22.6059 9.71289 22.0335C9.95898 21.4611 10.2988 21.0194 10.7324 20.7084C11.1699 20.3973 11.668 20.2419 12.2266 20.2419C13.0898 20.2419 13.7871 20.5867 14.3184 21.2763C14.8535 21.9659 15.1211 22.8831 15.1211 24.0279V24.1158C15.1211 24.828 15.002 25.468 14.7637 26.036C14.5293 26.5993 14.1914 27.0388 13.75 27.3542C13.3125 27.6698 12.8086 27.8275 12.2383 27.8275C11.3789 27.8275 10.6816 27.4828 10.1465 26.7931C9.61523 26.1035 9.34961 25.1908 9.34961 24.055V23.9671ZM10.4395 24.1158C10.4395 24.9271 10.6016 25.5785 10.9258 26.0698C11.2539 26.561 11.6914 26.8066 12.2383 26.8066C12.7891 26.8066 13.2266 26.5588 13.5508 26.063C13.875 25.5627 14.0371 24.864 14.0371 23.9671C14.0371 23.1648 13.8711 22.5158 13.5391 22.02C13.2109 21.5197 12.7734 21.2695 12.2266 21.2695C11.6914 21.2695 11.2598 21.5152 10.9316 22.0065C10.6035 22.4977 10.4395 23.2008 10.4395 24.1158ZM17.5059 20.3772L17.541 21.2965C18.0254 20.5935 18.6582 20.2419 19.4395 20.2419C20.7793 20.2419 21.4551 21.114 21.4668 22.8583V27.6923H20.3828V22.8516C20.3789 22.3243 20.2734 21.9344 20.0664 21.6819C19.8633 21.4296 19.5449 21.3033 19.1113 21.3033C18.7598 21.3033 18.4512 21.4115 18.1855 21.6278C17.9199 21.8442 17.7129 22.1281 17.5645 22.4797V27.6923H16.4805V20.3772H17.5059ZM23.4648 27.6923V21.3438H22.4629V20.3772H23.4648V19.7551C23.4648 18.9393 23.666 18.3038 24.0684 17.8486C24.4746 17.3933 25.0469 17.1658 25.7852 17.1658C26.2227 17.1658 26.7754 17.3032 27.4434 17.5782L27.2617 18.6328C26.7734 18.4074 26.3086 18.2948 25.8672 18.2948C25.4023 18.2948 25.0664 18.4164 24.8594 18.6599C24.6562 18.8987 24.5547 19.2593 24.5547 19.7416V20.3772H25.8496V21.3438H24.5547V27.6923H23.4648ZM27.9824 27.6923H26.8926V20.3772H27.9824V27.6923ZM32.8105 21.4994C32.6465 21.4679 32.4688 21.4521 32.2773 21.4521C31.5664 21.4521 31.084 21.8013 30.8301 22.5V27.6923H29.7461V20.3772H30.8008L30.8184 21.2222C31.1738 20.5687 31.6777 20.2419 32.3301 20.2419C32.541 20.2419 32.7012 20.2734 32.8105 20.3365V21.4994ZM34.832 20.3772L34.8613 21.1884C35.3262 20.5574 35.9531 20.2419 36.7422 20.2419C37.6289 20.2419 38.2324 20.634 38.5527 21.4183C38.7637 21.0667 39.0371 20.7827 39.373 20.5664C39.7129 20.35 40.1133 20.2419 40.5742 20.2419C41.9648 20.2419 42.6719 21.0915 42.6953 22.7908V27.6923H41.6113V22.8651C41.6113 22.3423 41.5078 21.9524 41.3008 21.6954C41.0938 21.4341 40.7461 21.3033 40.2578 21.3033C39.8555 21.3033 39.5215 21.4431 39.2559 21.7225C38.9902 21.9975 38.8359 22.3693 38.793 22.8381V27.6923H37.7031V22.8989C37.7031 21.8352 37.252 21.3033 36.3496 21.3033C35.6387 21.3033 35.1523 21.6526 34.8906 22.3513V27.6923H33.8066V20.3772H34.832ZM46.9668 27.8275C46.1074 27.8275 45.4082 27.503 44.8691 26.8539C44.3301 26.2004 44.0605 25.3283 44.0605 24.2376V24.0076C44.0605 23.282 44.1797 22.6352 44.418 22.0673C44.6602 21.4949 44.9961 21.0487 45.4258 20.7286C45.8594 20.4042 46.3281 20.2419 46.832 20.2419C47.6562 20.2419 48.2969 20.5552 48.7539 21.1816C49.2109 21.8082 49.4395 22.705 49.4395 23.8725V24.393H45.1445C45.1602 25.1142 45.3418 25.6979 45.6895 26.1441C46.041 26.5858 46.4863 26.8066 47.0254 26.8066C47.4082 26.8066 47.7324 26.7165 47.998 26.5362C48.2637 26.3559 48.4961 26.1171 48.6953 25.8196L49.3574 26.4145C48.8262 27.3565 48.0293 27.8275 46.9668 27.8275ZM46.832 21.2695C46.3945 21.2695 46.0273 21.4544 45.7305 21.824C45.4336 22.189 45.25 22.7028 45.1797 23.3654H48.3555V23.2708C48.3242 22.6352 48.1758 22.1439 47.9102 21.7968C47.6445 21.4453 47.2852 21.2695 46.832 21.2695Z" fill="black"/>
<path d="M14.2188 8.41497L15.212 8.54892L15.3424 7.26112H14.2188V8.41497ZM8.55859 10.4229L7.79207 11.164L7.79411 11.1667L8.55859 10.4229ZM8.07227 3.71619L7.16863 3.22195L7.16638 3.2275L8.07227 3.71619ZM9.2793 2.12064L9.80412 3.10283L9.80872 3.09952L9.2793 2.12064ZM13.2637 2.4384L12.5832 3.28394L12.586 3.28695L13.2637 2.4384ZM14.2188 4.85878V6.01262H15.3242L15.2137 4.74346L14.2188 4.85878ZM13.0879 4.85878L12.0981 5.02288L12.2213 6.01262H13.0879V4.85878ZM12.4492 3.15505L11.7644 3.99588L11.7688 4.00058L12.4492 3.15505ZM9.39062 3.54718L8.59908 2.84204L8.59627 2.84627L9.39062 3.54718ZM12.4199 10.1254L13.0663 11.0059L13.0671 11.0051L12.4199 10.1254ZM13.0879 8.41497V7.26112H12.2314L12.0998 8.23761L13.0879 8.41497ZM13.2255 8.28102C13.1423 9.10227 12.8958 9.61943 12.5583 9.96022L13.8749 11.6973C14.6624 10.9024 15.0842 9.81 15.212 8.54892L13.2255 8.28102ZM12.5583 9.96022C12.2246 10.2968 11.7354 10.5198 10.9844 10.5198V12.8275C12.0927 12.8275 13.0914 12.4875 13.8749 11.6973L12.5583 9.96022ZM10.9844 10.5198C10.2491 10.5198 9.72857 10.234 9.32308 9.67911L7.79411 11.1667C8.60737 12.2796 9.70405 12.8275 10.9844 12.8275V10.5198ZM9.32511 9.6819C8.90911 9.10899 8.65039 8.28121 8.65039 7.07632H6.65039C6.65039 8.6659 6.99714 10.0692 7.79207 11.164L9.32511 9.6819ZM8.65039 7.07632V6.12981H6.65039V7.07632H8.65039ZM8.65039 6.12981C8.65039 5.35138 8.76976 4.71918 8.97815 4.20488L7.16638 3.2275C6.81228 4.10143 6.65039 5.07831 6.65039 6.12981H8.65039ZM8.97588 4.21043C9.1861 3.69875 9.46394 3.34483 9.80412 3.10283L8.75449 1.13847C8.0556 1.63565 7.52873 2.34542 7.16863 3.22195L8.97588 4.21043ZM9.80872 3.09952C10.1514 2.85273 10.5652 2.71334 11.084 2.71334V0.405648C10.2356 0.405648 9.44621 0.640358 8.74987 1.14177L9.80872 3.09952ZM11.084 2.71334C11.7949 2.71334 12.2593 2.93684 12.5832 3.28394L13.9441 1.59287C13.1743 0.768103 12.1856 0.405648 11.084 0.405648V2.71334ZM12.586 3.28695C12.917 3.63885 13.153 4.16132 13.2238 4.97408L15.2137 4.74346C15.1048 3.49192 14.7041 2.40081 13.9413 1.58985L12.586 3.28695ZM14.2188 3.70493H13.0879V6.01262H14.2188V3.70493ZM14.0777 4.69468C13.964 3.78167 13.6943 2.91448 13.1297 2.30952L11.7688 4.00058C11.8604 4.09874 12.0164 4.36737 12.0981 5.02288L14.0777 4.69468ZM13.134 2.31422C12.5717 1.70445 11.8415 1.47385 11.084 1.47385V3.78155C11.4984 3.78155 11.6783 3.90253 11.7644 3.99588L13.134 2.31422ZM11.084 1.47385C10.0808 1.47385 9.2136 1.92365 8.59908 2.84204L10.1822 4.2523C10.388 3.94475 10.6497 3.78155 11.084 3.78155V1.47385ZM8.59627 2.84627C8.0072 3.7351 7.78125 4.89245 7.78125 6.16362H9.78125C9.78125 5.17216 9.96155 4.58521 10.185 4.24808L8.59627 2.84627ZM7.78125 6.16362V7.11689H9.78125V6.16362H7.78125ZM7.78125 7.11689C7.78125 8.33491 8.00088 9.44432 8.54485 10.3319L10.1778 8.99952C9.94833 8.62508 9.78125 8.03528 9.78125 7.11689H7.78125ZM8.54485 10.3319C9.1273 11.2823 9.9791 11.7661 10.9844 11.7661V9.45839C10.599 9.45839 10.3688 9.31115 10.1778 8.99952L8.54485 10.3319ZM10.9844 11.7661C11.7447 11.7661 12.489 11.5701 13.0663 11.0059L11.7736 9.24501C11.6868 9.32983 11.474 9.45839 10.9844 9.45839V11.7661ZM13.0671 11.0051C13.6695 10.4151 13.951 9.51933 14.076 8.59232L12.0998 8.23761C12.006 8.93319 11.8422 9.1778 11.7728 9.24578L13.0671 11.0051ZM13.0879 9.56881H14.2188V7.26112H13.0879V9.56881ZM16.7676 11.5385V12.6923H17.7676V11.5385H16.7676ZM15.6836 11.5385H14.6836V12.6923H15.6836V11.5385ZM15.6836 1.15385V0H14.6836V1.15385H15.6836ZM16.7676 1.15385H17.7676V0H16.7676V1.15385ZM16.7676 10.3846H15.6836V12.6923H16.7676V10.3846ZM16.6836 11.5385V1.15385H14.6836V11.5385H16.6836ZM15.6836 2.30769H16.7676V0H15.6836V2.30769ZM15.7676 1.15385V11.5385H17.7676V1.15385H15.7676ZM19.6855 11.5385V12.6923H20.6855V11.5385H19.6855ZM18.6016 11.5385H17.6016V12.6923H18.6016V11.5385ZM18.6016 4.22326V3.06942H17.6016V4.22326H18.6016ZM19.6855 4.22326H20.6855V3.06942H19.6855V4.22326ZM18.6719 1.76908L17.9298 0.995673L17.9237 1.0034L17.9178 1.01126L18.6719 1.76908ZM18.6719 2.78997L17.9286 3.56184L17.9346 3.56962L17.9408 3.57726L18.6719 2.78997ZM19.6855 10.3846H18.6016V12.6923H19.6855V10.3846ZM19.6016 11.5385V4.22326H17.6016V11.5385H19.6016ZM18.6016 5.37711H19.6855V3.06942H18.6016V5.37711ZM18.6855 4.22326V11.5385H20.6855V4.22326H18.6855ZM19.5137 2.28291C19.5137 2.29797 19.5115 2.33671 19.4955 2.3886C19.4791 2.44201 19.454 2.48979 19.426 2.5269L17.9178 1.01126C17.6383 1.38153 17.5137 1.82991 17.5137 2.28291H19.5137ZM19.414 2.54249C19.3568 2.61553 19.2887 2.66453 19.2276 2.69118C19.1719 2.71551 19.1406 2.71334 19.1523 2.71334V0.405648C18.7464 0.405648 18.2806 0.547503 17.9298 0.995673L19.414 2.54249ZM19.1523 2.71334C19.1641 2.71334 19.1328 2.71551 19.077 2.69118C19.0159 2.66453 18.9479 2.61553 18.8907 2.54249L20.3749 0.995673C20.0241 0.547503 19.5583 0.405648 19.1523 0.405648V2.71334ZM18.8907 2.54249C18.8626 2.50662 18.8357 2.4581 18.8175 2.40122C18.7998 2.34572 18.7969 2.30255 18.7969 2.28291H20.7969C20.7969 1.81835 20.6637 1.36463 20.3749 0.995673L18.8907 2.54249ZM18.7969 2.28291C18.7969 2.26351 18.7997 2.21782 18.819 2.15822C18.8389 2.09682 18.8689 2.04324 18.9018 2.00267L20.3639 3.57726C20.6634 3.20694 20.7969 2.74727 20.7969 2.28291H18.7969ZM18.9018 2.00267C18.9611 1.92935 19.0293 1.88287 19.0871 1.85848C19.1397 1.83628 19.1674 1.83894 19.1523 1.83894V4.14663C19.5486 4.14663 20.0107 4.0139 20.3639 3.57726L18.9018 2.00267ZM19.1523 1.83894C19.1373 1.83894 19.165 1.83628 19.2176 1.85848C19.2754 1.88287 19.3436 1.92935 19.4029 2.00267L17.9408 3.57726C18.294 4.0139 18.7561 4.14663 19.1523 4.14663V1.83894ZM19.4152 2.01808C19.4479 2.06009 19.476 2.11307 19.4941 2.17096C19.5116 2.22688 19.5137 2.2681 19.5137 2.28291H17.5137C17.5137 2.73548 17.6385 3.18991 17.9286 3.56184L19.4152 2.01808ZM21.8477 5.09541L22.6321 5.81098L22.6342 5.808L21.8477 5.09541ZM25.4629 4.96019L24.7049 5.71277L26.2831 7.82909L26.4602 5.04465L25.4629 4.96019ZM25.5098 4.22326V3.06942H24.5805L24.5124 4.1388L25.5098 4.22326ZM26.5059 4.22326H27.5059V3.06942H26.5059V4.22326ZM26.5059 14.351V15.5048H27.5059V14.351H26.5059ZM25.4219 14.351H24.4219V15.5048H25.4219V14.351ZM25.4219 10.8624H26.4219V7.93505L24.6908 10.0751L25.4219 10.8624ZM21.8418 10.646L21.0449 11.3432L21.0494 11.3498L21.8418 10.646ZM22.7031 9.93615L21.8977 10.62L21.9013 10.6257L22.7031 9.93615ZM25.4219 9.66571L26.2809 10.2564L26.4219 9.98343V9.66571H25.4219ZM25.4219 6.08248H26.4219V5.75589L26.2735 5.47776L25.4219 6.08248ZM22.709 5.8391L23.5108 6.52861L23.5135 6.52445L22.709 5.8391ZM22.1621 7.82001C22.1621 6.83955 22.3567 6.21295 22.6321 5.81098L21.0632 4.37984C20.4245 5.312 20.1621 6.5018 20.1621 7.82001H22.1621ZM22.6342 5.808C22.893 5.42766 23.2107 5.24189 23.6875 5.24189V2.9342C22.6252 2.9342 21.7164 3.41999 21.0612 4.3828L22.6342 5.808ZM23.6875 5.24189C24.188 5.24189 24.4869 5.42046 24.7049 5.71277L26.2209 4.2076C25.5717 3.33705 24.687 2.9342 23.6875 2.9342V5.24189ZM26.4602 5.04465L26.5071 4.30771L24.5124 4.1388L24.4656 4.87573L26.4602 5.04465ZM25.5098 5.37711H26.5059V3.06942H25.5098V5.37711ZM25.5059 4.22326V14.351H27.5059V4.22326H25.5059ZM26.5059 13.1971H25.4219V15.5048H26.5059V13.1971ZM26.4219 14.351V10.8624H24.4219V14.351H26.4219ZM24.6908 10.0751C24.4685 10.3499 24.1658 10.5198 23.6758 10.5198V12.8275C24.6389 12.8275 25.5002 12.4566 26.1529 11.6497L24.6908 10.0751ZM23.6758 10.5198C23.2126 10.5198 22.8972 10.3364 22.6342 9.94223L21.0494 11.3498C21.7005 12.3258 22.6077 12.8275 23.6758 12.8275V10.5198ZM22.6387 9.94892C22.3533 9.51465 22.1621 8.87065 22.1621 7.90791H20.1621C20.1621 9.2168 20.424 10.3982 21.0449 11.3432L22.6387 9.94892ZM22.1621 7.90791V7.82001H20.1621V7.90791H22.1621ZM21.2461 7.96199C21.2461 8.94772 21.4239 9.87713 21.8977 10.62L23.5086 9.25229C23.373 9.03965 23.2461 8.65295 23.2461 7.96199H21.2461ZM21.9013 10.6257C22.4 11.3977 23.1122 11.8066 23.9453 11.8066V9.49895C23.7393 9.49895 23.6235 9.43013 23.5049 9.24663L21.9013 10.6257ZM23.9453 11.8066C24.955 11.8066 25.7674 11.2508 26.2809 10.2564L24.5628 9.07507C24.3967 9.39675 24.2247 9.49895 23.9453 9.49895V11.8066ZM26.4219 9.66571V6.08248H24.4219V9.66571H26.4219ZM26.2735 5.47776C25.7559 4.50713 24.9523 3.96183 23.957 3.96183V6.26953C24.2274 6.26953 24.4004 6.36877 24.5702 6.68721L26.2735 5.47776ZM23.957 3.96183C23.119 3.96183 22.4033 4.37423 21.9045 5.15375L23.5135 6.52445C23.6319 6.3394 23.7482 6.26953 23.957 6.26953V3.96183ZM21.9072 5.14958C21.4149 5.91168 21.2461 6.90876 21.2461 7.96199H23.2461C23.2461 7.14022 23.3859 6.72204 23.5108 6.52861L21.9072 5.14958ZM32.1602 10.8151L33.1595 10.7719L33.0634 7.80833L31.3984 10.0676L32.1602 10.8151ZM28.7559 10.9976L28.0092 11.7653L28.0163 11.7742L28.7559 10.9976ZM28.2227 8.98288H27.2226L27.2227 8.98873L28.2227 8.98288ZM28.2227 4.22326V3.06942H27.2227V4.22326H28.2227ZM29.3066 4.22326H30.3066V3.06942H29.3066V4.22326ZM32.1309 9.54401L33.0451 10.0114L33.1309 9.78817V9.54401H32.1309ZM32.1309 4.22326V3.06942H31.1309V4.22326H32.1309ZM33.2148 4.22326H34.2148V3.06942H33.2148V4.22326ZM33.2148 11.5385V12.6923H34.2148V11.5385H33.2148ZM32.1836 11.5385L31.1843 11.5816L31.2203 12.6923H32.1836V11.5385ZM31.3984 10.0676C31.2132 10.3189 30.9065 10.5198 30.3027 10.5198V12.8275C31.3318 12.8275 32.2634 12.4561 32.9219 11.5626L31.3984 10.0676ZM30.3027 10.5198C29.8248 10.5198 29.6116 10.3682 29.4955 10.221L28.0163 11.7742C28.6111 12.5285 29.4291 12.8275 30.3027 12.8275V10.5198ZM29.5025 10.23C29.3732 10.0626 29.2259 9.70975 29.2226 8.97702L27.2227 8.98873C27.2273 10.0318 27.4353 11.0223 28.0092 11.7653L29.5025 10.23ZM29.2227 8.98288V4.22326H27.2227L27.2226 8.98288H29.2227ZM28.2227 5.37711H29.3066V3.06942H28.2227V5.37711ZM28.3066 4.22326V8.94907H30.3066V4.22326H28.3066ZM28.3066 8.94907C28.3066 9.63003 28.4224 10.3549 28.8237 10.9243C29.2571 11.5395 29.8727 11.7661 30.4785 11.7661V9.45839C30.3838 9.45839 30.3452 9.44069 30.3452 9.44069C30.3452 9.44069 30.3502 9.44311 30.3582 9.44995C30.3663 9.45686 30.3723 9.46399 30.3755 9.46855C30.3862 9.48364 30.3066 9.37687 30.3066 8.94907H28.3066ZM30.4785 11.7661C31.012 11.7661 31.5373 11.6519 32.0015 11.3518C32.4789 11.0431 32.8273 10.5788 33.0451 10.0114L31.2166 9.07664C31.161 9.22141 31.0972 9.29115 31.0239 9.33856C30.9373 9.39457 30.7732 9.45839 30.4785 9.45839V11.7661ZM33.1309 9.54401V4.22326H31.1309V9.54401H33.1309ZM32.1309 5.37711H33.2148V3.06942H32.1309V5.37711ZM32.2148 4.22326V11.5385H34.2148V4.22326H32.2148ZM33.2148 10.3846H32.1836V12.6923H33.2148V10.3846ZM33.1829 11.4954L33.1595 10.7719L31.1609 10.8582L31.1843 11.5816L33.1829 11.4954ZM35.4004 10.7001L34.676 11.4956L34.6784 11.4985L35.4004 10.7001ZM34.9492 5.91346L34.0506 5.40727L34.0491 5.41067L34.9492 5.91346ZM35.957 4.57482L36.4993 5.54427L36.5012 5.54286L35.957 4.57482ZM39.9707 8.23918V9.39302H40.9707V8.23918H39.9707ZM35.6758 8.23918V7.08533H34.6505L34.6761 8.26802L35.6758 8.23918ZM36.2207 9.99023L35.477 10.7617L35.4842 10.7707L36.2207 9.99023ZM39.2266 9.66571L39.841 8.75536L39.049 8.04373L38.4353 8.9602L39.2266 9.66571ZM39.8887 10.2607L40.7268 10.89L41.2279 10.0016L40.5031 9.35031L39.8887 10.2607ZM36.2617 5.67007L36.991 6.4596L36.9951 6.45442L36.2617 5.67007ZM35.7109 7.21154L34.7184 7.0713L34.581 8.36538H35.7109V7.21154ZM38.8867 7.21154V8.36538H39.8867V7.21154H38.8867ZM38.8867 7.11689H39.8867V7.08418L39.8851 7.05152L38.8867 7.11689ZM38.4414 5.64302L37.6876 6.40127L37.6919 6.40681L38.4414 5.64302ZM37.498 10.5198C36.8802 10.5198 36.4524 10.2991 36.1224 9.90176L34.6784 11.4985C35.4265 12.3992 36.3971 12.8275 37.498 12.8275V10.5198ZM36.1248 9.90465C35.7983 9.50883 35.5918 8.94387 35.5918 8.08368H33.5918C33.5918 9.405 33.9244 10.5843 34.676 11.4956L36.1248 9.90465ZM35.5918 8.08368V7.85382H33.5918V8.08368H35.5918ZM35.5918 7.85382C35.5918 7.27615 35.686 6.80547 35.8493 6.41625L34.0491 5.41067C33.7359 6.15728 33.5918 6.98016 33.5918 7.85382H35.5918ZM35.8479 6.41965C36.0167 6.02068 36.2349 5.74117 36.4993 5.54427L35.4147 3.60538C34.8198 4.04849 34.3662 4.66142 34.0506 5.40727L35.8479 6.41965ZM36.5012 5.54286C36.7772 5.33632 37.0577 5.24189 37.3633 5.24189V2.9342C36.6611 2.9342 36.0041 3.16428 35.4128 3.60678L36.5012 5.54286ZM37.3633 5.24189C37.9454 5.24189 38.2847 5.44818 38.5201 5.77083L40.0502 4.28476C39.3715 3.3544 38.4296 2.9342 37.3633 2.9342V5.24189ZM38.5201 5.77083C38.7721 6.11631 38.9707 6.70934 38.9707 7.7186H40.9707C40.9707 6.39313 40.7122 5.19228 40.0502 4.28476L38.5201 5.77083ZM38.9707 7.7186V8.23918H40.9707V7.7186H38.9707ZM39.9707 7.08533H35.6758V9.39302H39.9707V7.08533ZM34.6761 8.26802C34.6964 9.20588 34.9394 10.0716 35.477 10.7617L36.9644 9.21883C36.8067 9.01648 36.6864 8.71479 36.6755 8.21034L34.6761 8.26802ZM35.4842 10.7707C36.0329 11.4602 36.7494 11.8066 37.5566 11.8066V9.49895C37.2858 9.49895 37.1116 9.40371 36.9572 9.20977L35.4842 10.7707ZM37.5566 11.8066C38.0749 11.8066 38.5839 11.684 39.0363 11.3769L38.0223 9.38782C37.9435 9.44132 37.804 9.49895 37.5566 9.49895V11.8066ZM39.0363 11.3769C39.418 11.1178 39.7452 10.7783 40.0178 10.3712L38.4353 8.9602C38.3095 9.14806 38.1719 9.2863 38.0223 9.38782L39.0363 11.3769ZM38.6121 10.5761L39.2742 11.171L40.5031 9.35031L39.841 8.75536L38.6121 10.5761ZM39.0505 9.63135C38.7228 10.2124 38.2588 10.5198 37.498 10.5198V12.8275C38.8623 12.8275 39.992 12.1929 40.7268 10.89L39.0505 9.63135ZM37.3633 3.96183C36.6479 3.96183 36.0148 4.28007 35.5283 4.88573L36.9951 6.45442C37.1024 6.3209 37.2036 6.26953 37.3633 6.26953V3.96183ZM35.5325 4.88056C35.0487 5.47544 34.806 6.24582 34.7184 7.0713L36.7035 7.35178C36.7565 6.85214 36.881 6.5949 36.991 6.4596L35.5325 4.88056ZM35.7109 8.36538H38.8867V6.05769H35.7109V8.36538ZM39.8867 7.21154V7.11689H37.8867V7.21154H39.8867ZM39.8851 7.05152C39.8459 6.25328 39.652 5.48166 39.191 4.87925L37.6919 6.40681C37.762 6.49851 37.8651 6.70947 37.8883 7.18225L39.8851 7.05152ZM39.1952 4.8848C38.7154 4.24978 38.0663 3.96183 37.3633 3.96183V6.26953C37.5665 6.26953 37.6362 6.33316 37.6876 6.40127L39.1952 4.8848ZM8.26562 24.5688L9.25886 24.7028L9.38932 23.415H8.26562V24.5688ZM2.60547 26.5768L1.83894 27.3178L1.84099 27.3205L2.60547 26.5768ZM2.11914 19.87L1.21551 19.3758L1.21326 19.3814L2.11914 19.87ZM3.32617 18.2745L3.85099 19.2567L3.8556 19.2533L3.32617 18.2745ZM7.31055 18.5923L6.63009 19.4378L6.63292 19.4408L7.31055 18.5923ZM8.26562 21.0126V22.1664H9.37109L9.26062 20.8973L8.26562 21.0126ZM7.13477 21.0126L6.14493 21.1768L6.26817 22.1664H7.13477V21.0126ZM6.49609 19.3089L5.81126 20.1497L5.81564 20.1545L6.49609 19.3089ZM3.4375 19.701L2.64595 18.9959L2.64314 19.0002L3.4375 19.701ZM7.13477 24.5688V23.415H6.27829L6.14665 24.3915L7.13477 24.5688ZM7.27239 24.4349C7.18919 25.2561 6.94271 25.7732 6.60517 26.1141L7.9218 27.8512C8.70926 27.0562 9.13112 25.9638 9.25886 24.7028L7.27239 24.4349ZM6.60517 26.1141C6.27146 26.4507 5.78226 26.6737 5.03125 26.6737V28.9814C6.13961 28.9814 7.13832 28.6413 7.9218 27.8512L6.60517 26.1141ZM5.03125 26.6737C4.29595 26.6737 3.77544 26.3878 3.36995 25.833L1.84099 27.3205C2.65424 28.4334 3.75092 28.9814 5.03125 28.9814V26.6737ZM3.37199 25.8358C2.95598 25.2629 2.69727 24.435 2.69727 23.2302H0.697266C0.697266 24.8198 1.04401 26.223 1.83894 27.3178L3.37199 25.8358ZM2.69727 23.2302V22.2837H0.697266V23.2302H2.69727ZM2.69727 22.2837C2.69727 21.5053 2.81663 20.8731 3.02502 20.3587L1.21326 19.3814C0.859151 20.2553 0.697266 21.2322 0.697266 22.2837H2.69727ZM3.02276 20.3642C3.23297 19.8526 3.51081 19.4986 3.85099 19.2567L2.80136 17.2923C2.10248 17.7895 1.57561 18.4993 1.21551 19.3758L3.02276 20.3642ZM3.8556 19.2533C4.19832 19.0066 4.61203 18.8672 5.13086 18.8672V16.5595C4.2825 16.5595 3.49309 16.7942 2.79675 17.2956L3.8556 19.2533ZM5.13086 18.8672C5.84174 18.8672 6.30612 19.0906 6.63009 19.4378L7.991 17.7467C7.22121 16.922 6.23248 16.5595 5.13086 16.5595V18.8672ZM6.63292 19.4408C6.96391 19.7927 7.19988 20.3152 7.27063 21.128L9.26062 20.8973C9.15168 19.6457 8.75093 18.5547 7.98817 17.7437L6.63292 19.4408ZM8.26562 19.8587H7.13477V22.1664H8.26562V19.8587ZM8.1246 20.8485C8.01091 19.9355 7.74118 19.0683 7.17654 18.4634L5.81564 20.1545C5.90726 20.2525 6.06331 20.5213 6.14493 21.1768L8.1246 20.8485ZM7.18091 18.4681C6.61857 17.8583 5.88836 17.6277 5.13086 17.6277V19.9353C5.54523 19.9353 5.72516 20.0564 5.81126 20.1497L7.18091 18.4681ZM5.13086 17.6277C4.12768 17.6277 3.26047 18.0775 2.64595 18.9959L4.22904 20.4061C4.43484 20.0986 4.69654 19.9353 5.13086 19.9353V17.6277ZM2.64314 19.0002C2.05407 19.889 1.82812 21.0463 1.82812 22.3175H3.82812C3.82812 21.326 4.00843 20.739 4.23186 20.402L2.64314 19.0002ZM1.82812 22.3175V23.2708H3.82812V22.3175H1.82812ZM1.82812 23.2708C1.82812 24.4888 2.04776 25.5982 2.59172 26.4857L4.22469 25.1534C3.99521 24.779 3.82812 24.1891 3.82812 23.2708H1.82812ZM2.59172 26.4857C3.17418 27.4362 4.02597 27.92 5.03125 27.92V25.6123C4.6459 25.6123 4.41567 25.465 4.22469 25.1534L2.59172 26.4857ZM5.03125 27.92C5.79159 27.92 6.53585 27.7239 7.11314 27.1597L5.82045 25.3988C5.73368 25.4836 5.52091 25.6123 5.03125 25.6123V27.92ZM7.11314 27.1597C7.7156 26.5696 7.99791 25.6732 8.12288 24.7462L6.14665 24.3915C6.05287 25.087 5.88908 25.3317 5.81966 25.3996L7.11314 27.1597ZM7.13477 25.7227H8.26562V23.415H7.13477V25.7227ZM9.71289 22.0335L8.81704 21.5207L8.81426 21.5273L9.71289 22.0335ZM10.7324 20.7084L10.2079 19.726L10.2045 19.7285L10.7324 20.7084ZM14.3184 21.2763L13.5709 22.0428L13.5734 22.046L14.3184 21.2763ZM14.7637 26.036L13.8636 25.5331L13.8621 25.5366L14.7637 26.036ZM13.75 27.3542L13.2234 26.3733L13.22 26.3758L13.75 27.3542ZM10.1465 26.7931L9.39907 27.5597L9.4015 27.5628L10.1465 26.7931ZM10.9258 26.0698L10.1302 26.7688L10.1337 26.7741L10.9258 26.0698ZM13.5508 26.063L14.349 26.7579L14.3516 26.7539L13.5508 26.063ZM13.5391 22.02L12.7416 22.7163L12.7478 22.7255L13.5391 22.02ZM10.3496 23.9671C10.3496 23.4038 10.444 22.9357 10.6115 22.5397L8.81426 21.5273C8.49745 22.276 8.34961 23.0971 8.34961 23.9671H10.3496ZM10.6087 22.5463C10.7795 22.1491 10.998 21.8766 11.2604 21.6884L10.2045 19.7285C9.59968 20.1622 9.13848 20.773 8.81704 21.5207L10.6087 22.5463ZM11.2569 21.6908C11.5231 21.5016 11.8365 21.3958 12.2266 21.3958V19.0881C11.4995 19.0881 10.8168 19.2932 10.2079 19.726L11.2569 21.6908ZM12.2266 21.3958C12.8298 21.3958 13.2457 21.6209 13.5709 22.0428L15.0658 20.5097C14.3284 19.5525 13.3499 19.0881 12.2266 19.0881V21.3958ZM13.5734 22.046C13.9079 22.477 14.1211 23.097 14.1211 24.0279H16.1211C16.1211 22.6692 15.7992 21.4547 15.0633 20.5066L13.5734 22.046ZM14.1211 24.0279V24.1158H16.1211V24.0279H14.1211ZM14.1211 24.1158C14.1211 24.6764 14.0281 25.141 13.8636 25.5331L15.6637 26.5387C15.9758 25.7949 16.1211 24.9796 16.1211 24.1158H14.1211ZM13.8621 25.5366C13.7066 25.9105 13.4954 26.179 13.2234 26.3733L14.2766 28.3351C14.8875 27.8985 15.352 27.2881 15.6652 26.5352L13.8621 25.5366ZM13.22 26.3758C12.9579 26.5648 12.6416 26.6737 12.2383 26.6737V28.9814C12.9756 28.9814 13.6671 28.7747 14.28 28.3327L13.22 26.3758ZM12.2383 26.6737C11.6405 26.6737 11.2222 26.4496 10.8915 26.0234L9.4015 27.5628C10.1411 28.5158 11.1174 28.9814 12.2383 28.9814V26.6737ZM10.8939 26.0265C10.5607 25.594 10.3496 24.9763 10.3496 24.055H8.34961C8.34961 25.4053 8.66975 26.613 9.39907 27.5597L10.8939 26.0265ZM10.3496 24.055V23.9671H8.34961V24.055H10.3496ZM9.43945 24.1158C9.43945 25.1004 9.63704 26.0215 10.1302 26.7688L11.7214 25.3707C11.5661 25.1354 11.4395 24.7538 11.4395 24.1158H9.43945ZM10.1337 26.7741C10.655 27.5545 11.3876 27.9605 12.2383 27.9605V25.6528C11.9952 25.6528 11.8528 25.5675 11.7179 25.3653L10.1337 26.7741ZM12.2383 27.9605C13.0942 27.9605 13.8307 27.5505 14.349 26.7579L12.7525 25.368C12.6224 25.567 12.4839 25.6528 12.2383 25.6528V27.9605ZM14.3516 26.7539C14.8506 25.9839 15.0371 25.0082 15.0371 23.9671H13.0371C13.0371 24.7199 12.8994 25.1414 12.7499 25.3719L14.3516 26.7539ZM15.0371 23.9671C15.0371 22.9818 14.8316 22.0629 14.3303 21.3144L12.7478 22.7255C12.9106 22.9686 13.0371 23.3477 13.0371 23.9671H15.0371ZM14.3365 21.3237C13.818 20.5333 13.0846 20.1157 12.2266 20.1157V22.4234C12.4623 22.4234 12.6037 22.5062 12.7416 22.7163L14.3365 21.3237ZM12.2266 20.1157C11.3796 20.1157 10.656 20.5289 10.1396 21.3022L11.7237 22.7108C11.8635 22.5015 12.0032 22.4234 12.2266 22.4234V20.1157ZM10.1396 21.3022C9.6259 22.0712 9.43945 23.0623 9.43945 24.1158H11.4395C11.4395 23.3394 11.5811 22.9243 11.7237 22.7108L10.1396 21.3022ZM17.5059 20.3772L18.5049 20.3263L18.4627 19.2233H17.5059V20.3772ZM17.541 21.2965L16.542 21.3474L16.6599 24.43L18.3238 22.0146L17.541 21.2965ZM21.4668 22.8583H22.4668V22.8494L21.4668 22.8583ZM21.4668 27.6923V28.8462H22.4668V27.6923H21.4668ZM20.3828 27.6923H19.3828V28.8462H20.3828V27.6923ZM20.3828 22.8516H21.3828V22.8417L20.3828 22.8516ZM20.0664 21.6819L19.3336 22.4671L19.3401 22.4751L20.0664 21.6819ZM17.5645 22.4797L16.6655 21.9744L16.5645 22.2136V22.4797H17.5645ZM17.5645 27.6923V28.8462H18.5645V27.6923H17.5645ZM16.4805 27.6923H15.4805V28.8462H16.4805V27.6923ZM16.4805 20.3772V19.2233H15.4805V20.3772H16.4805ZM16.5068 20.4279L16.542 21.3474L18.54 21.2458L18.5049 20.3263L16.5068 20.4279ZM18.3238 22.0146C18.6177 21.588 18.9618 21.3958 19.4395 21.3958V19.0881C18.3546 19.0881 17.4331 19.5989 16.7582 20.5786L18.3238 22.0146ZM19.4395 21.3958C19.9213 21.3958 20.1135 21.5461 20.2057 21.6651C20.3179 21.8099 20.462 22.1417 20.4668 22.8673L22.4668 22.8494C22.4599 21.8305 22.2602 20.8543 21.6967 20.127C21.113 19.3738 20.2975 19.0881 19.4395 19.0881V21.3958ZM20.4668 22.8583V27.6923H22.4668V22.8583H20.4668ZM21.4668 26.5385H20.3828V28.8462H21.4668V26.5385ZM21.3828 27.6923V22.8516H19.3828V27.6923H21.3828ZM21.3828 22.8417C21.3778 22.1697 21.2447 21.4398 20.7927 20.8888L19.3401 22.4751C19.3022 22.4288 19.38 22.4789 19.3828 22.8614L21.3828 22.8417ZM20.7992 20.8968C20.3348 20.3197 19.6956 20.1495 19.1113 20.1495V22.4572C19.2478 22.4572 19.3209 22.4776 19.3504 22.4893C19.374 22.4986 19.3577 22.4971 19.3336 22.4671L20.7992 20.8968ZM19.1113 20.1495C18.5709 20.1495 18.0571 20.3202 17.6089 20.6852L18.7622 22.5705C18.8453 22.5029 18.9486 22.4572 19.1113 22.4572V20.1495ZM17.6089 20.6852C17.1997 21.0185 16.8844 21.4558 16.6655 21.9744L18.4634 22.9851C18.5413 22.8006 18.6402 22.67 18.7622 22.5705L17.6089 20.6852ZM16.5645 22.4797V27.6923H18.5645V22.4797H16.5645ZM17.5645 26.5385H16.4805V28.8462H17.5645V26.5385ZM17.4805 27.6923V20.3772H15.4805V27.6923H17.4805ZM16.4805 21.531H17.5059V19.2233H16.4805V21.531ZM23.4648 27.6923H22.4648V28.8462H23.4648V27.6923ZM23.4648 21.3438H24.4648V20.19H23.4648V21.3438ZM22.4629 21.3438H21.4629V22.4977H22.4629V21.3438ZM22.4629 20.3772V19.2233H21.4629V20.3772H22.4629ZM23.4648 20.3772V21.531H24.4648V20.3772H23.4648ZM24.0684 17.8486L23.3717 17.0208L23.3682 17.0247L24.0684 17.8486ZM27.4434 17.5782L28.4242 17.803L28.5924 16.8261L27.7793 16.4913L27.4434 17.5782ZM27.2617 18.6328L26.8903 19.7041L28.0079 20.22L28.2425 18.8577L27.2617 18.6328ZM24.5547 20.3772H23.5547V21.531H24.5547V20.3772ZM25.8496 20.3772H26.8496V19.2233H25.8496V20.3772ZM25.8496 21.3438V22.4977H26.8496V21.3438H25.8496ZM24.5547 21.3438V20.19H23.5547V21.3438H24.5547ZM24.5547 27.6923V28.8462H25.5547V27.6923H24.5547ZM27.9824 27.6923V28.8462H28.9824V27.6923H27.9824ZM26.8926 27.6923H25.8926V28.8462H26.8926V27.6923ZM26.8926 20.3772V19.2233H25.8926V20.3772H26.8926ZM27.9824 20.3772H28.9824V19.2233H27.9824V20.3772ZM24.4648 27.6923V21.3438H22.4648V27.6923H24.4648ZM23.4648 20.19H22.4629V22.4977H23.4648V20.19ZM23.4629 21.3438V20.3772H21.4629V21.3438H23.4629ZM22.4629 21.531H23.4648V19.2233H22.4629V21.531ZM24.4648 20.3772V19.7551H22.4648V20.3772H24.4648ZM24.4648 19.7551C24.4648 19.1657 24.6041 18.8583 24.7685 18.6725L23.3682 17.0247C22.7279 17.7492 22.4648 18.7128 22.4648 19.7551H24.4648ZM24.765 18.6763C24.9332 18.4878 25.2251 18.3196 25.7852 18.3196V16.0119C24.8686 16.0119 24.016 16.2988 23.3717 17.0208L24.765 18.6763ZM25.7852 18.3196C26.0593 18.3196 26.4889 18.4103 27.1074 18.6648L27.7793 16.4913C27.0619 16.1961 26.386 16.0119 25.7852 16.0119V18.3196ZM26.4625 17.3533L26.2809 18.4079L28.2425 18.8577L28.4242 17.803L26.4625 17.3533ZM27.6331 17.5615C27.0488 17.2919 26.4577 17.141 25.8672 17.141V19.4487C26.1595 19.4487 26.498 19.5231 26.8903 19.7041L27.6331 17.5615ZM25.8672 17.141C25.2833 17.141 24.6245 17.2887 24.1457 17.8516L25.5731 19.468C25.5413 19.5054 25.5251 19.5018 25.5661 19.487C25.6118 19.4703 25.7059 19.4487 25.8672 19.4487V17.141ZM24.1457 17.8516C23.6915 18.3857 23.5547 19.0905 23.5547 19.7416H25.5547C25.5547 19.5902 25.571 19.5048 25.5819 19.4661C25.5913 19.4327 25.5934 19.4442 25.5731 19.468L24.1457 17.8516ZM23.5547 19.7416V20.3772H25.5547V19.7416H23.5547ZM24.5547 21.531H25.8496V19.2233H24.5547V21.531ZM24.8496 20.3772V21.3438H26.8496V20.3772H24.8496ZM25.8496 20.19H24.5547V22.4977H25.8496V20.19ZM23.5547 21.3438V27.6923H25.5547V21.3438H23.5547ZM24.5547 26.5385H23.4648V28.8462H24.5547V26.5385ZM27.9824 26.5385H26.8926V28.8462H27.9824V26.5385ZM27.8926 27.6923V20.3772H25.8926V27.6923H27.8926ZM26.8926 21.531H27.9824V19.2233H26.8926V21.531ZM26.9824 20.3772V27.6923H28.9824V20.3772H26.9824ZM32.8105 21.4994L32.6461 22.6375L33.8105 22.8615V21.4994H32.8105ZM30.8301 22.5L29.9079 22.0538L29.8301 22.2678V22.5H30.8301ZM30.8301 27.6923V28.8462H31.8301V27.6923H30.8301ZM29.7461 27.6923H28.7461V28.8462H29.7461V27.6923ZM29.7461 20.3772V19.2233H28.7461V20.3772H29.7461ZM30.8008 20.3772L31.8005 20.3495L31.7771 19.2233H30.8008V20.3772ZM30.8184 21.2222L29.8186 21.2499L29.8984 25.0843L31.6654 21.8356L30.8184 21.2222ZM32.8105 20.3365H33.8105V19.6235L33.2578 19.3045L32.8105 20.3365ZM32.9749 20.3612C32.7492 20.3178 32.5158 20.2982 32.2773 20.2982V22.6059C32.4217 22.6059 32.5438 22.6178 32.6461 22.6375L32.9749 20.3612ZM32.2773 20.2982C31.7803 20.2982 31.2865 20.4212 30.8508 20.7367C30.4094 21.0563 30.1019 21.5198 29.9079 22.0538L31.7523 22.9462C31.8121 22.7815 31.8729 22.7211 31.9139 22.6914C31.9605 22.6576 32.0634 22.6059 32.2773 22.6059V20.2982ZM29.8301 22.5V27.6923H31.8301V22.5H29.8301ZM30.8301 26.5385H29.7461V28.8462H30.8301V26.5385ZM30.7461 27.6923V20.3772H28.7461V27.6923H30.7461ZM29.7461 21.531H30.8008V19.2233H29.7461V21.531ZM29.8011 20.4047L29.8186 21.2499L31.8181 21.1945L31.8005 20.3495L29.8011 20.4047ZM31.6654 21.8356C31.8435 21.508 32.0322 21.3958 32.3301 21.3958V19.0881C31.3232 19.0881 30.5042 19.6292 29.9713 20.6088L31.6654 21.8356ZM32.3301 21.3958C32.3615 21.3958 32.3863 21.3969 32.4053 21.3985C32.4243 21.4002 32.4356 21.402 32.4401 21.4029C32.4448 21.4038 32.44 21.4033 32.4278 21.399C32.4157 21.3947 32.393 21.3857 32.3633 21.3685L33.2578 19.3045C32.9429 19.1229 32.599 19.0881 32.3301 19.0881V21.3958ZM31.8105 20.3365V21.4994H33.8105V20.3365H31.8105ZM34.832 20.3772L35.8312 20.329L35.7912 19.2233H34.832V20.3772ZM34.8613 21.1884L33.8622 21.2364L33.9686 24.1818L35.6233 21.9357L34.8613 21.1884ZM38.5527 21.4183L37.6482 21.9102L38.3876 23.7207L39.3749 22.075L38.5527 21.4183ZM39.373 20.5664L38.89 19.5561L38.8857 19.5588L39.373 20.5664ZM42.6953 22.7908H43.6953V22.7815L43.6952 22.7723L42.6953 22.7908ZM42.6953 27.6923V28.8462H43.6953V27.6923H42.6953ZM41.6113 27.6923H40.6113V28.8462H41.6113V27.6923ZM41.3008 21.6954L40.5625 22.4738L40.5684 22.4812L41.3008 21.6954ZM39.2559 21.7225L39.9236 22.5815L39.9296 22.5751L39.2559 21.7225ZM38.793 22.8381L37.7985 22.7167L37.793 22.7772V22.8381H38.793ZM38.793 27.6923V28.8462H39.793V27.6923H38.793ZM37.7031 27.6923H36.7031V28.8462H37.7031V27.6923ZM34.8906 22.3513L33.9727 21.8934L33.8906 22.1125V22.3513H34.8906ZM34.8906 27.6923V28.8462H35.8906V27.6923H34.8906ZM33.8066 27.6923H32.8066V28.8462H33.8066V27.6923ZM33.8066 20.3772V19.2233H32.8066V20.3772H33.8066ZM33.8329 20.4252L33.8622 21.2364L35.8605 21.1404L35.8312 20.329L33.8329 20.4252ZM35.6233 21.9357C35.8778 21.5902 36.2136 21.3958 36.7422 21.3958V19.0881C35.6927 19.0881 34.7746 19.5246 34.0994 20.4411L35.6233 21.9357ZM36.7422 21.3958C37.0608 21.3958 37.2535 21.4663 37.3692 21.5414C37.4746 21.6099 37.5686 21.7153 37.6482 21.9102L39.4573 20.9264C39.2166 20.337 38.8486 19.8542 38.3505 19.5306C37.8627 19.2136 37.3103 19.0881 36.7422 19.0881V21.3958ZM39.3749 22.075C39.4956 21.8739 39.6526 21.7078 39.8604 21.5739L38.8857 19.5588C38.4216 19.8577 38.0318 20.2595 37.7305 20.7615L39.3749 22.075ZM39.8561 21.5767C40.0226 21.4708 40.2505 21.3958 40.5742 21.3958V19.0881C39.976 19.0881 39.4032 19.2294 38.89 19.5561L39.8561 21.5767ZM40.5742 21.3958C41.099 21.3958 41.3217 21.5527 41.4262 21.6782C41.5405 21.8157 41.686 22.1228 41.6954 22.8091L43.6952 22.7723C43.6812 21.7593 43.4615 20.7921 42.8688 20.0799C42.2662 19.3559 41.44 19.0881 40.5742 19.0881V21.3958ZM41.6953 22.7908V27.6923H43.6953V22.7908H41.6953ZM42.6953 26.5385H41.6113V28.8462H42.6953V26.5385ZM42.6113 27.6923V22.8651H40.6113V27.6923H42.6113ZM42.6113 22.8651C42.6113 22.1909 42.4801 21.4644 42.0331 20.9098L40.5684 22.4812C40.5356 22.4403 40.6113 22.4937 40.6113 22.8651H42.6113ZM42.039 20.9172C41.5554 20.3064 40.8646 20.1495 40.2578 20.1495V22.4572C40.4297 22.4572 40.5283 22.481 40.575 22.4984C40.616 22.5138 40.596 22.5162 40.5625 22.4738L42.039 20.9172ZM40.2578 20.1495C39.6383 20.1495 39.0543 20.3731 38.5821 20.8698L39.9296 22.5751C39.9886 22.513 40.0727 22.4572 40.2578 22.4572V20.1495ZM38.5881 20.8636C38.1116 21.3569 37.8635 22.0079 37.7985 22.7167L39.7874 22.9595C39.8084 22.7307 39.8689 22.638 39.9236 22.5815L38.5881 20.8636ZM37.793 22.8381V27.6923H39.793V22.8381H37.793ZM38.793 26.5385H37.7031V28.8462H38.793V26.5385ZM38.7031 27.6923V22.8989H36.7031V27.6923H38.7031ZM38.7031 22.8989C38.7031 22.1953 38.5539 21.4545 38.0794 20.8951C37.601 20.3311 36.9604 20.1495 36.3496 20.1495V22.4572C36.6411 22.4572 36.6774 22.5414 36.6501 22.5093C36.6267 22.4818 36.7031 22.5388 36.7031 22.8989H38.7031ZM36.3496 20.1495C35.8522 20.1495 35.3592 20.2726 34.9232 20.5858C34.482 20.9026 34.1717 21.3622 33.9727 21.8934L35.8085 22.8091C35.8713 22.6417 35.935 22.5773 35.9801 22.5449C36.0305 22.5088 36.136 22.4572 36.3496 22.4572V20.1495ZM33.8906 22.3513V27.6923H35.8906V22.3513H33.8906ZM34.8906 26.5385H33.8066V28.8462H34.8906V26.5385ZM34.8066 27.6923V20.3772H32.8066V27.6923H34.8066ZM33.8066 21.531H34.832V19.2233H33.8066V21.531ZM44.8691 26.8539L44.1448 27.6494L44.1472 27.6523L44.8691 26.8539ZM44.418 22.0673L43.5193 21.5611L43.5179 21.5646L44.418 22.0673ZM45.4258 20.7286L45.9681 21.6981L45.97 21.6967L45.4258 20.7286ZM49.4395 24.393V25.5468H50.4395V24.393H49.4395ZM45.1445 24.393V23.2392H44.1192L44.1448 24.4218L45.1445 24.393ZM45.6895 26.1441L44.9457 26.9155L44.9529 26.9245L45.6895 26.1441ZM48.6953 25.8196L49.3097 24.9092L48.5178 24.1975L47.904 25.114L48.6953 25.8196ZM49.3574 26.4145L50.1956 27.0438L50.6966 26.1554L49.9718 25.5042L49.3574 26.4145ZM45.7305 21.824L46.4597 22.6134L46.4639 22.6082L45.7305 21.824ZM45.1797 23.3654L44.1871 23.2252L44.0498 24.5192H45.1797V23.3654ZM48.3555 23.3654V24.5192H49.3555V23.3654H48.3555ZM48.3555 23.2708H49.3555V23.238L49.3539 23.2053L48.3555 23.2708ZM47.9102 21.7968L47.1564 22.5552L47.1606 22.5607L47.9102 21.7968ZM46.9668 26.6737C46.349 26.6737 45.9211 26.453 45.5911 26.0556L44.1472 27.6523C44.8953 28.5531 45.8659 28.9814 46.9668 28.9814V26.6737ZM45.5935 26.0585C45.267 25.6627 45.0605 25.0977 45.0605 24.2376H43.0605C43.0605 25.5588 43.3931 26.7382 44.1448 27.6494L45.5935 26.0585ZM45.0605 24.2376V24.0076H43.0605V24.2376H45.0605ZM45.0605 24.0076C45.0605 23.43 45.1547 22.9593 45.318 22.57L43.5179 21.5646C43.2046 22.3111 43.0605 23.134 43.0605 24.0076H45.0605ZM45.3166 22.5735C45.4854 22.1745 45.7037 21.895 45.9681 21.6981L44.8835 19.7593C44.2885 20.2023 43.8349 20.8153 43.5193 21.5611L45.3166 22.5735ZM45.97 21.6967C46.2459 21.4902 46.5264 21.3958 46.832 21.3958V19.0881C46.1298 19.0881 45.4728 19.3182 44.8816 19.7607L45.97 21.6967ZM46.832 21.3958C47.4142 21.3958 47.7535 21.6021 47.9889 21.9247L49.519 20.4387C48.8403 19.5082 47.8983 19.0881 46.832 19.0881V21.3958ZM47.9889 21.9247C48.2409 22.2702 48.4395 22.8632 48.4395 23.8725H50.4395C50.4395 22.547 50.181 21.3462 49.519 20.4387L47.9889 21.9247ZM48.4395 23.8725V24.393H50.4395V23.8725H48.4395ZM49.4395 23.2392H45.1445V25.5468H49.4395V23.2392ZM44.1448 24.4218C44.1652 25.3597 44.408 26.2254 44.9457 26.9155L46.4331 25.3727C46.2755 25.1703 46.1551 24.8686 46.1442 24.3642L44.1448 24.4218ZM44.9529 26.9245C45.5017 27.6141 46.2181 27.9605 47.0254 27.9605V25.6528C46.7545 25.6528 46.5803 25.5576 46.426 25.3636L44.9529 26.9245ZM47.0254 27.9605C47.5437 27.9605 48.0526 27.8378 48.5051 27.5308L47.491 25.5417C47.4122 25.5952 47.2727 25.6528 47.0254 25.6528V27.9605ZM48.5051 27.5308C48.8867 27.2717 49.214 26.9322 49.4866 26.5251L47.904 25.114C47.7782 25.3019 47.6406 25.4401 47.491 25.5417L48.5051 27.5308ZM48.0809 26.7299L48.743 27.3249L49.9718 25.5042L49.3097 24.9092L48.0809 26.7299ZM48.5193 25.7852C48.1916 26.3662 47.7275 26.6737 46.9668 26.6737V28.9814C48.3311 28.9814 49.4608 28.3468 50.1956 27.0438L48.5193 25.7852ZM46.832 20.1157C46.1167 20.1157 45.4835 20.4339 44.997 21.0396L46.4639 22.6082C46.5712 22.4747 46.6724 22.4234 46.832 22.4234V20.1157ZM45.0012 21.0344C44.5175 21.6293 44.2747 22.3996 44.1871 23.2252L46.1723 23.5056C46.2253 23.006 46.3497 22.7488 46.4597 22.6134L45.0012 21.0344ZM45.1797 24.5192H48.3555V22.2115H45.1797V24.5192ZM49.3555 23.3654V23.2708H47.3555V23.3654H49.3555ZM49.3539 23.2053C49.3146 22.4071 49.1208 21.6355 48.6597 21.0331L47.1606 22.5607C47.2308 22.6523 47.3338 22.8633 47.3571 23.3361L49.3539 23.2053ZM48.6639 21.0387C48.1841 20.4036 47.5351 20.1157 46.832 20.1157V22.4234C47.0352 22.4234 47.1049 22.487 47.1564 22.5552L48.6639 21.0387Z" fill="#E83F5B"/>
</svg>
