<svg width="51" height="28" viewBox="0 0 51 28" fill="none" xmlns="http://www.w3.org/2000/svg">
<path d="M34.1307 5.86902L34.1308 5.86918C36.2128 7.95119 37.5 10.8255 37.5 14C37.5 17.1765 36.2128 20.0507 34.131 22.1307L34.1308 22.1308C32.0488 24.2128 29.1745 25.5 26 25.5C22.8254 25.5 19.9492 24.2127 17.8693 22.131L17.869 22.1307C15.7872 20.0507 14.5 17.1765 14.5 14C14.5 10.8235 15.7872 7.94927 17.869 5.86934L17.8693 5.86902C19.9493 3.78722 22.8235 2.5 26 2.5C29.1765 2.5 32.0507 3.78722 34.1307 5.86902ZM28.6484 9.4043H28.6614L28.6744 9.40362C28.6746 9.40361 28.6749 9.4036 28.6751 9.40359C28.6781 9.40498 28.6886 9.41052 28.7061 9.4266L30.3813 11.0257L30.3831 11.0274C30.3856 11.0298 30.3875 11.0325 30.3891 11.0361C30.3907 11.0399 30.3926 11.0466 30.3926 11.0566C30.3926 11.0834 30.3893 11.0984 30.3875 11.1045L30.3862 11.1058L30.3808 11.1115L29.8354 11.682L28.0778 9.9853L28.6159 9.42706L28.6159 9.42711L28.6214 9.42124C28.6284 9.41369 28.6336 9.4095 28.6365 9.4074L28.6396 9.40535L28.6405 9.40487C28.6405 9.40486 28.6404 9.40489 28.6403 9.40492C28.6402 9.40495 28.6403 9.40492 28.6406 9.40486C28.6409 9.40481 28.6417 9.40464 28.6433 9.4045C28.6445 9.40439 28.6462 9.4043 28.6484 9.4043ZM22.2103 16.5409L23.4794 17.8111C23.4125 17.8325 23.3435 17.8548 23.2713 17.8786L23.2688 17.8795C22.9441 17.9883 22.6213 18.0953 22.2887 18.2042C22.0749 18.2732 21.8895 18.3333 21.7314 18.3848C21.7497 18.3093 21.7701 18.2273 21.7927 18.1388C21.7928 18.1383 21.7929 18.1378 21.7931 18.1373L22.2103 16.5409ZM34.0959 5.90443L34.0956 5.90408C32.0233 3.83381 29.1613 2.55273 26 2.55273C22.8387 2.55273 19.9767 3.83381 17.9044 5.90408L17.9041 5.90443C15.8338 7.97675 14.5527 10.8387 14.5527 14C14.5527 17.1613 15.8338 20.0234 17.9062 22.0957C19.9766 24.1661 22.8405 25.4492 26.002 25.4492C29.1633 25.4492 32.0253 24.1681 34.0977 22.0957C36.1681 20.0254 37.4512 17.1614 37.4512 14V13.9994C37.4471 10.8385 36.1662 7.97676 34.0959 5.90443ZM26.7164 11.3983L28.4729 13.0898L25.3055 16.3836L23.5776 14.6556L26.7164 11.3983Z" fill="#292836" stroke="#292836"/>
<circle cx="26" cy="14" r="12.5" stroke="#292836" stroke-width="3"/>
</svg>
