<svg width="305" height="297" viewBox="0 0 305 297" fill="none" xmlns="http://www.w3.org/2000/svg">
<g filter="url(#filter0_d)">
<path d="M298.908 124.97C298.342 124.215 284.74 106.25 260.027 88.278C227.185 64.391 190.004 51.766 152.502 51.766C115.001 51.766 77.819 64.391 44.976 88.277C20.262 106.25 6.658 124.215 6.092 124.97C3.303 128.689 3.303 133.801 6.092 137.52C6.589 138.183 17.111 152.075 36.354 167.604L22.36 195.59C19.777 200.755 21.871 207.037 27.038 209.619C28.539 210.37 30.134 210.725 31.706 210.725C35.542 210.725 39.235 208.607 41.067 204.942L53.496 180.087C64.141 187.049 75.185 192.87 86.505 197.499L74.126 222.257C71.543 227.422 73.637 233.704 78.804 236.287C80.305 237.037 81.901 237.392 83.472 237.392C87.308 237.392 91.002 235.274 92.834 231.609L106.465 204.347C118.165 207.613 130.069 209.647 142.043 210.395V234.776C142.043 240.551 146.726 245.234 152.501 245.234C158.276 245.234 162.959 240.551 162.959 234.776V210.395C174.935 209.647 186.837 207.613 198.537 204.347L212.168 231.609C214.001 235.274 217.693 237.392 221.53 237.392C223.101 237.392 224.698 237.037 226.198 236.287C231.365 233.704 233.459 227.422 230.876 222.257L218.497 197.5C229.818 192.87 240.861 187.049 251.507 180.086L263.935 204.942C265.767 208.607 269.459 210.725 273.296 210.725C274.868 210.725 276.464 210.37 277.965 209.619C283.131 207.037 285.225 200.755 282.642 195.59L268.649 167.603C287.893 152.075 298.412 138.183 298.909 137.52C301.697 133.801 301.697 128.689 298.908 124.97ZM247.167 157.701C217.653 179.006 185.804 189.808 152.502 189.808C119.199 189.808 87.35 179.005 57.834 157.701C43.936 147.67 33.836 137.524 28.153 131.245C33.839 124.962 43.938 114.817 57.834 104.788C87.35 83.483 119.199 72.682 152.502 72.682C185.804 72.682 217.653 83.484 247.167 104.788C261.065 114.819 271.165 124.965 276.848 131.245C271.162 137.527 261.063 147.672 247.167 157.701Z" fill="white"/>
</g>
<defs>
<filter id="filter0_d" x="0" y="0" width="305" height="305" filterUnits="userSpaceOnUse" color-interpolation-filters="sRGB">
<feFlood flood-opacity="0" result="BackgroundImageFix"/>
<feColorMatrix in="SourceAlpha" type="matrix" values="0 0 0 0 0 0 0 0 0 0 0 0 0 0 0 0 0 0 127 0"/>
<feOffset dy="4"/>
<feGaussianBlur stdDeviation="2"/>
<feColorMatrix type="matrix" values="0 0 0 0 0 0 0 0 0 0 0 0 0 0 0 0 0 0 0.25 0"/>
<feBlend mode="normal" in2="BackgroundImageFix" result="effect1_dropShadow"/>
<feBlend mode="normal" in="SourceGraphic" in2="effect1_dropShadow" result="shape"/>
</filter>
</defs>
</svg>
