<svg width="297" height="255" viewBox="0 0 297 255" fill="none" xmlns="http://www.w3.org/2000/svg">
<path d="M294.908 121.225C294.342 120.469 280.74 102.505 256.027 84.532C246.02 77.255 235.609 71.028 224.911 65.88L272.369 18.422C276.453 14.338 276.453 7.716 272.369 3.632C268.284 -0.451003 261.664 -0.451003 257.579 3.632L203.922 57.29C185.862 51.168 167.222 48.021 148.502 48.021C111.001 48.021 73.819 60.646 40.976 84.531C16.262 102.506 2.658 120.47 2.092 121.225C-0.696998 124.943 -0.696998 130.056 2.092 133.774C2.658 134.53 16.262 152.494 40.976 170.468C50.982 177.745 61.394 183.971 72.091 189.119L24.633 236.577C20.549 240.661 20.549 247.283 24.633 251.367C26.676 253.409 29.352 254.43 32.027 254.43C34.705 254.43 37.381 253.409 39.423 251.367L93.081 197.709C111.143 203.831 129.782 206.977 148.502 206.977C186.004 206.977 223.186 194.352 256.027 170.466C280.74 152.492 294.342 134.528 294.908 133.773C297.697 130.057 297.697 124.943 294.908 121.225ZM207.065 127.5C207.065 159.792 180.794 186.064 148.502 186.064C136.126 186.064 124.643 182.194 115.174 175.618L139.155 151.638C142.054 152.761 145.205 153.384 148.502 153.384C162.798 153.384 174.385 141.797 174.385 127.501C174.385 124.203 173.762 121.054 172.639 118.153L196.619 94.173C203.196 103.641 207.065 115.123 207.065 127.5ZM89.939 127.5C89.939 95.208 116.21 68.937 148.503 68.937C160.879 68.937 172.362 72.805 181.829 79.383L157.849 103.363C154.949 102.24 151.8 101.617 148.503 101.617C134.207 101.617 122.62 113.204 122.62 127.5C122.62 130.797 123.243 133.946 124.366 136.846L100.386 160.826C93.808 151.358 89.939 139.876 89.939 127.5ZM24.153 127.5C29.84 121.217 39.938 111.073 53.834 101.043C62.952 94.462 72.292 88.886 81.83 84.318C73.742 96.761 69.023 111.586 69.023 127.5C69.023 143.414 73.742 158.238 81.83 170.682C72.292 166.115 62.952 160.538 53.834 153.957C39.937 143.925 29.836 133.779 24.153 127.5ZM243.167 153.957C234.052 160.538 224.711 166.113 215.176 170.681C223.262 158.239 227.981 143.413 227.981 127.5C227.981 111.587 223.262 96.762 215.176 84.319C224.711 88.886 234.052 94.462 243.167 101.043C257.064 111.075 267.165 121.221 272.848 127.5C267.162 133.783 257.063 143.927 243.167 153.957Z" fill="black"/>
</svg>
