<svg width="476" height="484" viewBox="0 0 476 484" fill="none" xmlns="http://www.w3.org/2000/svg">
<g clip-path="url(#clip0)" filter="url(#filter0_d)">
<path d="M237.545 255.816C247.444 255.816 256.013 252.207 263.241 244.968C270.471 237.739 274.095 229.169 274.095 219.274V36.547C274.095 26.647 270.475 18.083 263.241 10.854C256.014 3.617 247.444 0 237.545 0C227.645 0 219.081 3.621 211.848 10.854C204.615 18.083 200.998 26.651 200.998 36.547V219.275C200.998 229.17 204.615 237.739 211.848 244.969C219.081 252.207 227.648 255.816 237.545 255.816Z" fill="white"/>
<path d="M433.836 157.887C418.511 127.245 396.958 101.548 369.17 80.803C361.176 74.713 352.135 72.333 342.047 73.664C331.958 74.997 323.964 79.755 318.064 87.937C311.973 95.93 309.646 104.923 311.07 114.916C312.493 124.914 317.209 132.953 325.203 139.044C343.848 153.128 358.275 170.356 368.453 190.722C378.637 211.086 383.723 232.787 383.723 255.813C383.723 275.614 379.869 294.501 372.162 312.491C364.456 330.478 354.032 346.035 340.897 359.17C327.762 372.301 312.209 382.721 294.219 390.431C276.232 398.141 257.341 402.001 237.546 402.001C217.754 402.001 198.862 398.141 180.875 390.431C162.886 382.721 147.328 372.301 134.193 359.17C121.064 346.035 110.642 330.479 102.932 312.491C95.224 294.501 91.369 275.614 91.369 255.813C91.369 232.787 96.461 211.089 106.643 190.722C116.826 170.358 131.244 153.131 149.896 139.044C157.89 132.949 162.599 124.911 164.029 114.916C165.456 104.927 163.126 95.93 157.034 87.937C151.133 79.755 143.19 74.996 133.195 73.664C123.201 72.332 114.11 74.713 105.927 80.803C78.135 101.548 56.583 127.245 41.258 157.887C25.934 188.533 18.275 221.175 18.275 255.814C18.275 285.511 24.081 313.868 35.69 340.896C47.303 367.924 62.908 391.236 82.516 410.844C102.118 430.447 125.435 446.059 152.465 457.659C179.493 469.274 207.853 475.085 237.545 475.085C267.238 475.085 295.597 469.274 322.626 457.659C349.657 446.055 372.973 430.446 392.578 410.844C412.18 391.242 427.785 367.924 439.396 340.896C451.007 313.868 456.808 285.504 456.808 255.814C456.809 221.174 449.16 188.532 433.836 157.887Z" fill="white"/>
</g>
<defs>
<filter id="filter0_d" x="-4" y="0" width="483.085" height="483.085" filterUnits="userSpaceOnUse" color-interpolation-filters="sRGB">
<feFlood flood-opacity="0" result="BackgroundImageFix"/>
<feColorMatrix in="SourceAlpha" type="matrix" values="0 0 0 0 0 0 0 0 0 0 0 0 0 0 0 0 0 0 127 0"/>
<feOffset dy="4"/>
<feGaussianBlur stdDeviation="2"/>
<feColorMatrix type="matrix" values="0 0 0 0 0 0 0 0 0 0 0 0 0 0 0 0 0 0 0.25 0"/>
<feBlend mode="normal" in2="BackgroundImageFix" result="effect1_dropShadow"/>
<feBlend mode="normal" in="SourceGraphic" in2="effect1_dropShadow" result="shape"/>
</filter>
<clipPath id="clip0">
<rect width="475.085" height="475.085" fill="white"/>
</clipPath>
</defs>
</svg>
